<?xml version="1.0" encoding="utf-8"?>
<!-- Generator: Adobe Illustrator 19.2.1, SVG Export Plug-In . SVG Version: 6.00 Build 0)  -->
<svg version="1.1" id="Layer_2" xmlns="http://www.w3.org/2000/svg" xmlns:xlink="http://www.w3.org/1999/xlink" x="0px" y="0px"
	 viewBox="0 0 6134.3 1772" style="enable-background:new 0 0 6134.3 1772;" xml:space="preserve">
<style type="text/css">
	.st0{fill:#F7CC6D;}
	.st1{fill:#7ABB5A;}
	.st2{fill:#DB2926;}
	.st3{fill:#D291BF;}
	.st4{fill:#9ED6E4;}
	.st5{fill:#FFFFFF;}
</style>
<g>
	<g>
		<path class="st0" d="M5144.8,374.4l5,5c2.9,3,5.8,5.9,8.8,8.8c9.3,9,20.4,15.5,30,20.8c24,13.1,47,19.5,71.1,19.9
			c1.8,0.3,3.7,0.4,5.6,0.4c8.9,0,18-2.9,28.2-6.5c7.5-2.6,15.3-7.1,22.7-13c15.7-12.5,26.5-28.5,32.2-47.8
			c5.2-17.5,5-34.8-0.5-51.3c-7.7-22.9-22.8-42.4-46.1-59.6c-11.4-8.4-23.4-15-35.7-19.7c-25.8-9.8-47.8-11.6-69.3-5.9
			c-18.7,5-35,14.7-49.6,29.9c-5.3,5.5-10.2,12.3-14.9,20.8c-6.4,11.6-10,24-10.7,36.8c-0.6,11,0.9,21.3,4.6,30.6
			C5129.3,352.2,5134.8,364.5,5144.8,374.4z"/>
		<path class="st1" d="M4932.2,505.3c2.3,3.6,4.8,6.9,7.5,10.5l11.9,13.6l5.2-11.9c0.6-1.3,0.9-2.2,1.2-3.1l18.8-56.8l-6.5-8.6
			c-3-4-6-8-9.1-11.9c-8.7-10.9-19-23.3-32.1-32.7c-3.8-2.7-8.3-5-13.4-6.8c-2-0.7-3.9-1-5.8-1c-2.6,0-11.2,0.9-13.1,12.8
			c-0.6,3.7-0.8,7.4-0.6,10.9c0.9,15.2,6,28.9,10.3,39.1C4913.9,476.5,4923.6,492,4932.2,505.3z"/>
		<path class="st2" d="M4720.1,315.2c3,11.3,9,21.8,18.9,33.3c17.6,20.4,39.6,37.2,65.6,49.9c12.1,6,25.3,11.5,40.3,11.5
			c2.7,0,5.4-0.2,8.1-0.6c6.8-0.9,12.3-3.7,16.9-8.4c10.2-10.5,10.2-23.7,9.3-32.8c-1.5-15.5-7.9-30.5-19.7-45.6
			c-15.6-20.1-35.5-36.4-58.9-48.2c-16.5-8.3-31.5-11.7-47.1-10.2c-18.1,1.7-36.5,16-35.1,39.7l0.4,3.1
			C4719,309.7,4719.4,312.5,4720.1,315.2z"/>
		<path class="st2" d="M5311.2,221.1c8.9,6,18.4,10.5,26.5,14.1c15.5,6.9,32.8,10.4,51.2,10.4l4.7-0.1c16.7-0.6,33.8-5.2,49.4-13.6
			c29.7-15.9,49.3-36.8,60-64c6-15.3,6.5-31.3,1.4-46.1c-6.7-19.6-20.2-35.3-40.1-46.8c-18.4-10.7-37.9-16.3-58.6-16.8l-7,0.7
			c-6.1,0.6-12.1,1.2-18.2,1.9c-4.2,0.5-8.4,1.3-12.4,2.5c-24.1,6.7-45.6,17.8-63.8,32.9c-14,11.6-23.7,24.1-29.8,38.3
			c-3.3,7.7-5,15.8-4.7,22.8c0.5,15,6.2,29.3,16.4,41.3C5293.8,207.3,5302.2,214.9,5311.2,221.1z"/>
		<path class="st3" d="M5435.4,628.8c7.7,4.6,18.1,10.1,30.3,11.6c1.7,0.2,3.4,0.3,5,0.3c12.4,0,21.7-5.9,26.7-17.1
			c2.6-5.7,3.2-11.4,3.8-16.4c0.2-2,0.5-4,0.8-6l0.2-1.1l-0.7-8c-0.4-5.3-0.8-10.4-1.8-15.5c-4.3-22.9-11.1-46.1-20.2-69
			c-11.5-29.2-26.6-63.1-50.4-92c-7.4-9-17.9-19.8-33.7-23.8c-8.8-2.3-17.9-1-26.2,3.7c-12.1,6.8-21.1,17.7-27.4,33.3
			c-6.8,17-9.5,34.4-8.2,53.4c1,14,4.5,27.9,10.7,42.6c8.3,19.9,20.9,39.3,38.4,59.3C5398.8,602.3,5416.5,617.4,5435.4,628.8z"/>
		<path class="st1" d="M5478.6,248.3c-15.1,23.4-22.2,50-21.1,79.1c0.8,20.3,5.5,41.7,14.4,65.4c10.6,28.2,24.5,54.2,41.2,77.2
			c8.2,11.3,18.4,24,32.3,33.3c5.7,3.8,11.7,5.8,17.3,5.8c8.6,0,16-4.6,20.9-13c5.4-9.2,7.7-18.7,9.2-26.7c3.5-18,4.3-36.3,5-55.8
			l-1.4-20.5c-1-15.5-2-31-3.6-46.4c-3.9-37.6-10.2-65.7-20.6-91c-4.6-11.3-10.4-22.8-21.1-31.5c-12.1-9.7-29.8-11.4-43.1-3.9
			C5496.3,226.7,5486.4,236.2,5478.6,248.3z"/>
		<path class="st3" d="M5142.1,1122.3l-1.4,14.6l30.1,5.9c17.6,3.5,35.3,7,53,9.9c23.2,3.8,46.5,7,69.8,10.2l17.3,2.4
			c5,0.7,10.2,0.8,15.3,0.9l2.8,0.1c2.3,0.1,4.6,0.1,7,0.1l16.5-1.1l1.7-13.8l-204.1-29.9L5142.1,1122.3z"/>
		<path class="st1" d="M5497,969.3l4.4-1.8c31-13,57-28.1,79.4-46.2c12.8-10.3,28.7-24.6,38.5-44.7c8.4-17.1,8.8-33.5,1.1-48.7
			c-7.1-14.2-18.2-25.6-35.9-37c-16.7-10.7-34.9-18.1-54.3-22c-20.7-4.2-39.7-2.7-57.3,4.4c-17,6.9-31.2,17.8-44.1,28.6
			c-11.3,9.5-176,120.4-176,120.4l-6.6,4.3c-67.2,43.8-118.8,83-162.5,123.4l-3.3,5.3l5.1,8.8l5.4,0.3l29.7-8.5
			c22.8-6.9,45.7-13.7,68.3-21.1C5207.8,1028.8,5497,969.3,5497,969.3z"/>
		<path class="st0" d="M4728.3,485.8c22.4,20.9,47.4,37.9,74.5,50.4c13.5,6.2,24.3,9.3,35.1,9.8l2.2,0.1c7.6,0,13.6-2.1,17.7-6.4
			c4.1-4.1,6.2-9.9,6.1-17.1l0-2.9c0.5-10.1-2.6-19.5-5.3-26.6c-7.3-18.9-18.8-36.4-35.2-53.3c-23.5-24.2-48-42.3-74.7-55.4
			c-7.7-3.7-19.6-8.8-33.1-9.5l-2-0.1c-7.3,0-13.4,2.2-18.6,6.7c-9.9,8.6-10.4,20.3-10,28.4c0.7,12.2,4.6,24.4,12,37.2
			C4704.7,460.8,4714.9,473.3,4728.3,485.8z M4840,538.4C4840,538.4,4840.1,538.4,4840,538.4l0,0.2L4840,538.4z"/>
		<path class="st4" d="M6017.2,992.7c-4.6-21.7-12.9-43.4-25.5-66.4c-19.6-35.7-44.4-68.3-73.6-96.7c-25.5-24.8-51.2-43.4-78.6-57.1
			c-20-10-37.1-15.3-54-16.8c-23.9-2.1-42.7,6-53.7,24.3c-4.4,7.4-8.1,16.4-10.5,25.9c-3.6,14.2-6.7,28.5-9.8,42.9l-5.2,23.7
			c-4.7,20.9-9.5,42.6-10.9,64.7c-1.1,18,0.5,34,4.9,49c7.8,26.1,23.2,49.4,45.9,69.3c24.7,21.6,53.7,37.6,88.6,48.7
			c26.3,8.4,52.6,13.2,74.2,13.8l3,0c20.4,0,34.9-1.9,48.5-6.3c28.7-9.3,47.6-28.9,56-58.3C6021.8,1035.2,6022,1015.4,6017.2,992.7z
			"/>
		<path class="st3" d="M5475.4,1136.8l29.3-0.4c19.8-0.3,39.5-0.6,59.2-1.1c30.3-0.8,69.1-12.6,69.1-12.6s50-25,25.1-59.6
			s-55.1-52.4-105.7-53.3s-180.5,24.6-215.1,30.5c-34.6,6-136.4,20-169.9,28.7c-33.5,8.7-71.2,24-71.2,24s88.5,20.4,166.4,28.5
			C5335.7,1129.2,5469.9,1136.8,5475.4,1136.8z M5475.4,1129.3L5475.4,1129.3L5475.4,1129.3L5475.4,1129.3z"/>
		<path class="st0" d="M4922.8,696.9l0.8-32l-14.8,28.4c-4.1,7.8-6.2,16.6-6.5,26.7c-0.3,11.8-0.7,25.1,0,38.1
			c1.4,25.2,3.2,47.1,5.3,67.1c3.5,33.2,9.4,66.3,17.6,98.2l14.6-3c-5.3-33.4-11.2-72.4-14.6-111.2
			C4921.7,769.9,4922,730.4,4922.8,696.9z"/>
		<path class="st3" d="M4911.6,932.3c-18.2-59.7-28.8-123.8-32.2-196.2c-1.3-26.6-3.7-55.1-12.9-82.3c-6.7-19.8-16.5-37.7-29.2-53.2
			c-13.5-16.5-29.8-31.6-48.5-44.8c-15.4-10.9-34.1-22.7-56.2-28.3c-4.3-1.1-8.9-1.6-13.5-1.6l-2.1,0c-10.7,0.4-19.7,8.2-22.8,19.8
			c-4.2,15.6-2,31.1,0.7,45.5c4.9,26.6,12.3,54.5,23.4,88c14.8,44.9,34.2,90.3,57.7,134.9c29.7,56.6,60.3,106.3,93.5,151.9
			c9.6,13.2,21.3,28.4,35.6,41.7c2.6,2.4,5.4,4.5,8.5,6.8l14.7,11.4l1.6-13c1.3-10.6-1-19.2-3.2-27.5
			C4921.9,967.5,4917,949.8,4911.6,932.3z"/>
		<path class="st4" d="M4930.7,544.9c-5.4-4.4-10.8-8.9-16.4-13c-4.1-3-8.9-4.7-14.3-6.6c-7.2-2.6-15.1,0.2-15.2,10.5
			c0,4.6,0.1,9.6,1.1,14.4c4.8,23,16.3,42.4,26.9,58.3c1.4,2.2,3,4.3,4.9,6.6l13,17.4l4-21.9c0.6-3.3,1.1-6,1.7-8.8
			c2.5-11.7,5-23.4,7.6-35.1c0.6-2.9,2.1-9.6-4.1-14.6C4936.7,549.8,4933.7,547.4,4930.7,544.9z"/>
		<path class="st2" d="M5222.3,506.3c-3.7-12.2-10.2-23.3-19.5-33.1c-3.7-3.9-7.4-7.8-11.3-11.6c-8.2-7.9-18.2-14.9-30.5-21.4
			c-21.7-11.6-42.5-17.2-63.5-17.2l-4.4,0.1c-19.9,0.7-38.2,8.9-54.3,24.1c-10.5,9.9-19.4,22.1-28.2,38.4l-10.7,29.8l-48.5,167
			l-2.2,25.6c-0.7,7.7-1.4,14.8-1.7,22c-1.9,40.2-0.4,80.3,4.4,119.3c3.7,29.5,8.3,55.1,14.1,78.2c4.6,18,10.1,37.2,19.6,55.2
			c0.9,1.6,1.9,3.2,3,4.9l9.2,11.4l6.1-10.9c0.7-1.2,1.1-2,1.5-2.9c7.8-19.4,131.2-254.4,131.2-254.4l40.9-69.5
			c13-22.2,25.5-44.1,35.2-67.3c6.3-15,13.6-35.1,14-57C5226.9,527.1,5225.4,516.6,5222.3,506.3z"/>
		<path class="st0" d="M5111.9,854.4c-3.1,4.8-5.9,10.2-8.8,17c-1.5,3.5-2.8,7.2-4.1,10.8c-2,5.7-3.9,11-6.6,15.8
			c-8.4,14.9-14,30-18.9,44.4c-9.5,27.8-19.3,56.6-26,86c-0.9,4-2.2,10-0.2,16.9l1.7,6l6.2-0.6c9.6-1,15.8-6.5,20.3-10.5
			c17.3-15.3,34.4-30.8,51.5-46.4c35.9-32.7,66.9-59.3,101.3-82.6c1.2-0.8,2.3-1.7,4.8-3.8l100.3-64.3l11.6-8.7
			c23.5-18,40.1-35.2,52.2-53.9c8.8-13.7,14.6-28.1,17.1-42.6c3.5-20.4,0.7-41.9-8.3-64c-7.9-19.3-18.9-36.8-32.6-52
			c-13.8-15.3-27.1-25.1-41.9-30.7c-5.6-2.2-14.4-4.8-25.1-4.8c0,0-0.1,0-0.1,0c-13.8,0.3-27.3,5.6-41.2,16.1
			c-21.4,16.1-37.1,36.9-50.9,56.9c-18.8,27.2-35.3,55.4-54.3,89.3c-0.7,1.2-1.2,2.6-2,5l-2,5.3
			C5156,759.1,5115.2,849.3,5111.9,854.4z"/>
	</g>
	<g>
		<path class="st5" d="M4342.7,1151.1c0-10.6,0-21.2,0-31.8c4-0.5,8-1,12.1-1.3c2.6-0.2,5.3,0.1,7.9-0.3c16.4-2.5,32.7-5.3,49.1-7.7
			c15.5-2.3,31.1-3.8,46.6-0.2c14,3.3,28,6.9,41.9,10.5c20.7,5.3,41.3,11.1,62.1,15.7c17.3,3.8,35,6.3,52.5,9.4
			c17.4,3,33.6,8.9,49,17.9c16.9,9.9,35.4,16,54.7,19.5c4,0.7,7.1,0.2,10.5-2.5c13.7-10.6,27.7-20.8,41.5-31.2
			c1.2-0.9,2.1-2.1,3.2-3.1c-4.9-0.1-9.6,0.3-13.7,1.9c-11.7,4.3-23.2,9.2-34.7,13.8c-3.8,1.5-7.6,3-11.5,4.2
			c-9.1,2.8-17.2,0.3-23.9-6.1c-3.2-3.1-5.5-7.2-8.2-10.9c-1.4-1.9-2.4-4.3-4.2-5.7c-6-4.8-9.1-11.1-10.1-18.5
			c-1.1-7.8-1.5-15.9-3.3-23.5c-4.8-20.2-1.4-39.1,8-57.2c1.5-3,2.9-6.1,3.9-9.3c7.2-23.4,20-42.9,38.8-58.7
			c9.1-7.7,18.8-14.2,29.4-19.3c5.6-2.7,8-6.5,7.2-12.5c-0.3-1.9-0.2-3.9-0.1-5.8c0.1-1.1,0.2-2.8,0.9-3.3c4.3-2.9,3.4-7.2,3.3-11.1
			c-0.2-4.5-0.9-9.1-1.5-13.6c-2.6-17.5-9.8-32.6-23.8-44c-5-4.1-10.3-7.9-15.6-11.7c-10.6-7.5-21.6-14.4-31.9-22.2
			c-15.5-11.7-26.7-26.7-33.2-45.3c-10.5-29.6-12.9-60-10.6-91c0.3-3.8,1.1-7.8,2.8-11.1c1.9-3.7,4.5-7.5,7.7-10.1
			c4.3-3.5,10.1-2.4,13.6,1.6c4.9,5.5,6.1,19.7,2.3,26c-1.6,2.6-3.8,3-6.1,1.7c-1.5-0.9-2.5-2.7-3.9-4.3c3.9-4.4,4.9-9.2,3.3-14.4
			c-1.3-4.2-4.7-5.2-7.4-1.8c-1.9,2.3-3.5,5.4-3.9,8.3c-1,6.9-1.4,13.8-1.6,20.8c-0.7,22.5,2,44.6,8.9,66.1
			c4.4,13.7,10.8,26.1,21.1,36.5c9.2,9.3,19.7,16.8,30.6,24c8.4,5.6,16.8,11.2,24.9,17.3c15.7,12,25.6,27.8,29.1,47.4
			c1.1,6.4,2.4,12.7,3.7,19.1c0.3,1.3,0.8,3.6,1.4,3.7c4.2,0.5,3,3.6,3.2,6c0.2,2.5,0.2,5,0.4,8.4c2.9-1.3,4.8-2.3,6.7-3.1
			c5.1-2.1,10.1-4.5,15.3-6.3c6.9-2.3,9.8-6.2,9-13c-0.3-2.4-0.7-4.8-1-7.1c-2.3-14.7-6.5-28.8-17.3-39.6
			c-6.2-6.3-13.3-11.8-20.4-17.1c-8.5-6.2-17.7-11.6-26.3-17.7c-18.4-13.1-32.9-29.2-40.6-51.1c-10.4-29.8-13.2-60.4-10.6-91.6
			c0.4-4.2,1.3-8.8,3.3-12.5c2.2-4.1,1.5-7.5,0.2-11.4c-7.5-22.6-15.3-45-21.9-67.9c-11.6-40-19.5-80.7-22.5-122.3
			c-1.6-22.6-1.6-45.2,0.6-67.7c2.6-27.1,8.2-53.6,17.5-79.3c7.9-21.8,17.9-42.5,32.9-60.5c12.1-14.4,26.6-25.1,45.4-28.6
			c7.2-1.3,14.9-1.8,22.2-0.8c23.1,3.3,43.3,13.9,62.3,26.7c32.6,21.9,60.6,48.9,86.8,77.9c22.1,24.4,42.7,50.2,62,76.9
			c1.9,2.6,3.9,5.1,6.3,8.2c1.5-3.2,2.6-5.3,3.5-7.5c23.9-54.4,54.4-104.9,90.2-152.3c39.5-52.4,84.5-99.9,134.3-142.7
			c38.8-33.3,79.7-63.6,127.4-83.3c14.6-6,29.6-11.1,45.6-12.7c5.7-0.6,11.3-1.9,17-2.8c0.5,0,1,0,1.4,0c3.5,0.5,7.1,1.4,10.6,1.3
			c10.5-0.2,20.4,2.1,30.5,4.6c14.2,3.5,27.2,9.8,39.4,17.3c27,16.7,48.5,39.4,66.1,65.6c21.7,32.3,37,67.8,48.4,104.9
			c9.1,29.6,16,59.8,21,90.4c4.6,28.2,7.7,56.6,9,85.2c1.4,31.5,1.6,63-1.1,94.4c-2.9,33.5-6.6,67-9.6,100.5
			c-1.2,13.1-1.8,26.4-1.9,39.6c-0.1,10.4,5.5,17.7,15.4,21.3c6.3,2.3,12.7,4.3,19.2,6c36.2,9.5,72.3,19.4,107.5,32
			c63,22.5,120.9,53.9,172,97.5c34.9,29.8,65.8,63.3,92.9,100.3c20.4,27.8,38.4,56.9,52.4,88.5c7.6,17.2,14.1,34.7,17.7,53.1
			c1.4,7,2.3,14.1,3.5,21.2c0,10.1,0,20.2,0,30.3c-0.5,2.8-1.1,5.5-1.5,8.3c-0.4,2.6-0.2,5.3-0.8,7.9c-4.4,18.7-11.6,36-23.5,51.3
			c-11,14.1-24.4,25.2-40,33.6c-30.9,16.5-64.7,22.5-99.1,25.7c-15.3,1.4-30.7,2.2-46.1,2.2c-24.8,0-49.5-0.5-74.3-1.4
			c-16.6-0.6-33.1-2.1-49.6-3.5c-18.4-1.6-36.8-3.5-55.3-5.3c-9.5-0.9-18.9-1.9-28.9-2.9c0,2.1,0.3,3.8,0,5.4
			c-1.3,6.3-1.9,12.9-4.3,18.8c-5.5,13.6-17.3,20.1-30.5,24.2c-20.2,6.2-40.9,5.5-61.6,4.2c-27.8-1.7-55.5-5.9-82.7-11.8
			c-47.1-10.2-94.3-20.4-141.1-31.8c-74.1-18.2-147.9-37.4-221.8-56.1c-1.5-0.4-3-0.4-5.3-0.7c7.2,22.4,4.8,44.2,0.9,66.6
			c2.4,0,4,0.1,5.7,0c17.7-0.8,35,1.8,51.9,7c4.9,1.5,9.4,3.5,12.7,7.7c1.3,1.6,3.2,2.9,5.1,3.6c27.2,11.1,52.8,25.4,78.3,39.7
			c2.7,1.5,5.7,3.1,7.6,5.3c3.3,3.7,7.3,5,11.9,5.7c35.1,5.6,68.4,17,100.8,31.2c3.6,1.6,7.1,4.3,9.4,7.4c2.6,3.6,5.7,5.3,9.7,6.6
			c27.1,8.2,52.6,19.7,75.3,36.9c4.5,3.4,8.5,7.3,10.4,12.6c1.3,3.6,3.7,6,6.7,8.1c23,16.7,42,37.3,59.3,59.7
			c3.2,4.1,5.9,8.9,7.6,13.8c1.7,4.9,4.3,9,7,13.3c5.8,8.8,12,17.5,16.7,26.9c7.1,14.4-0.7,30.3-16.1,34.5
			c-8.8,2.4-17.7,4.6-26.4,7.2c-3.6,1.1-7.1,2.8-10.2,4.9c-6.1,4-12.3,7.5-19.7,8.3c-17.2,1.8-34.3,4.1-51.6,5.2
			c-24,1.5-48,0.3-71.9-3.4c-4.9-0.8-10,0.3-15,0.4c-7.2,0.1-14.7,1.4-21.5-0.1c-28.8-6.6-56.1-17-79.7-35.4
			c-2.8-2.2-5.6-3.2-9.2-3.4c-6.8-0.4-13.1-2.7-18.7-6.8c-27.5-20.3-55-40.4-79.4-64.5c-1.3-1.3-2.9-2.9-4.6-3.2
			c-6-1.4-10.1-5.3-14-9.6c-5.3-5.9-10.6-11.8-15.9-17.7c-14-16-25.5-33.6-34.5-53c-1.1-2.4-2.9-5.4-5.1-6.3
			c-5.5-2.3-8.4-6.5-10.3-11.5c-4.4-11.2-8.6-22.4-12.3-33.8c-2.2-6.7-3.4-13.7-5.1-20.6c-6.8,1.8-10.4,5.7-11.1,12.6
			c-0.5,4.7-2.2,9.4-2.9,14.1c-0.4,2.8-0.5,5.8,0.2,8.5c3.1,10.7,0.6,20.9-2.2,31.2c-0.9,3.1-2.8,4.2-5.9,4
			c-1.4-0.1-2.9-0.1-4.3-0.3c-6.9-0.7-13.3-0.2-18.8,4.9c-1.7,1.6-4,2.6-6.1,3.8c-12.7,7.5-24.3,16.5-34.6,27
			c-9.1,9.3-18.1,18.6-27,28c-1.2,1.3-1.9,3.3-2.2,5.1c-1.7,8.5-3.2,17-4.9,25.5c-8.8,43.1-17.6,86.1-26.4,129.2
			c-3.6,18-3.5,35.8,2.2,53.4c3.1,9.8,5.6,19.9,8.5,29.8c5.1,17.8,25.1,45,4.6,55.9c-11.9,6.3-22.8,4.1-30.7-6.4
			c-14-18.6-10.8-49.5-13.2-71c-1.2-10.7-2.6-21.7-1.4-32.3c2.4-20,6.3-39.8,10.3-59.6c4.6-23.3,9.9-46.5,12.4-70.2
			c1.6-15.3,3.6-30.5,5.6-45.8c1-7.4,3-14.7,3.3-22c0.2-4.5,1.2-7.1,5.2-8.8c1.7-0.8,3-2.3,4.6-3.5c5.6-4.1,11.1-8.4,16.9-12.2
			c16.3-10.4,31-22.6,44.2-36.9c7.3-7.9,13.2-16.2,14.9-27.2c1.1-6.6,3.3-13,4.9-19.5c0.4-1.5,0.6-3.1,0.9-4.5
			c-12.1-3.2-23.8-6.4-35.7-9.5c-1.3,4.6-2.6,9.2-3.7,13.3c-19.4,2.1-37.9,4.1-56.2,6.1c-1.2,19-6.4,27.9-13,34.7
			c-0.7-0.1-1.4,0-2.1-0.2c-7.6-2.1-10.8-1-15.9,5.2c-14.5,17.7-24.7,37.7-33.2,58.8c-3.8,9.3-8.4,18.4-13.9,26.8
			c-3.2,4.8-5.4,9.4-6.4,14.8c-1.5,8.5-2.8,17.1-4.1,25.6c-1.9,12.6-3.6,25.5-0.3,38c4,15.1,8.9,29.9,13.7,44.7
			c5.3,16.2,11.1,32.3,16.5,48.4c0.8,2.3,0.8,4.8,1.4,8.1c-14.6,0-28,0.1-41.4-0.1c-3.1,0-4.5-2-4.5-5.3c0-4.1-0.1-8.2-0.8-12.2
			c-3.1-17.7-6.4-35.4-9.7-53.2c-0.8-4.3-1.6-8.7-2.8-14.6c-1.3,2.7-1.9,3.7-2.3,4.8c-6.4,17.1-12.8,34.2-19.1,51.4
			c-5.3,14.7-7.2,29.8-5.4,45.4c1.8,15.5,3.4,31,5.2,46.6c2.4,21.4,14.6,64.1-21.6,42.6c-28.8-17.1-15.8-57-14.3-86.5
			c0.4-7.2,1.1-14.4,2.3-21.5c2.8-16.7,9.4-32.2,15.4-48c10.6-28.1,22.5-55.7,30.9-84.5c6-20.5,12.7-40.8,19.1-61.2
			c1.2-3.9,3.5-7.5,3.9-11.5c2.2-20.8,3.8-41.6,5.9-62.4c1.4-14.3,3.2-28.5,4.8-42.9c3.2-0.6,5.5-1.3,7.8-1.5
			c12.9-1.1,25.8-2.4,38.7-2.8c4.9-0.2,7.3-2.2,9.4-6.1c4.2-7.8,8.7-15.5,13-23.3c0.9-1.6,1.5-3.4,2.4-5.5
			c-11.6-0.8-22.3-0.5-33.2,2.6c-22.5,6.4-43.1,16.1-62.2,29.5c-3.7,2.6-7.8,4.8-11.9,6.7c-3.7,1.6-6.3,4-8.5,7.3
			c-5.6,8.4-11.5,16.6-17.4,24.8c-24.1,33.6-48.3,67.2-72.4,100.8c-8.8,12.3-15.2,25.7-17.4,40.8c-2.7,18.5-5,37.2-7.5,55.7
			c-1.5,11.2-2.8,22.4-4.5,33.6c-0.7,5-2.7,6.1-7.5,5.1c-1.6-0.4-3.2-1.1-4.7-1.9c-8.5-4.5-17-9-25.4-13.7c-2-1.1-3.7-2.7-5-3.6
			c2.1-5.8,4.1-10.7,5.6-15.7c3.8-12.7,7.9-25.3,10.9-38.1c6.7-28.5,18.1-54.6,36.3-77.7c0.6-0.8,1.1-1.6,1.6-2.4
			c13.5-19,27.6-37.6,40.4-57.1c14.9-22.7,28.6-46.2,42.8-69.3c0.7-1.2,0.7-2.9,1.6-3.9c2.3-2.5,4.6-5.7,7.5-7
			c6.6-2.9,13.6-4.7,20.5-7c-8.3-8.7-17.5-14.3-28.4-17c-0.2-0.1-0.4-0.2-0.7-0.3c-17.2-7.3-35.2-11.1-53.9-11.8
			c-6-0.2-11.9-1.1-17.8-2c-2.9-0.4-5,0.1-6.9,2.4c-4.2,5-8.6,9.7-13,14.5c-28.4,30.8-56.8,61.5-85.1,92.3
			c-9.7,10.6-16.7,22.9-20.4,36.9c-6.6,24.9-13.1,49.7-19.7,74.6c-0.9,3.2-1.9,6.4-2.8,9.7c-1,3.8-3.7,4.9-7.2,4.1
			c-2.3-0.5-4.6-1.5-6.6-2.7c-3.5-2.2-6.5-4.9-10-7.1c-3.2-2-4.4-4.6-4.3-8.4c0.2-8.4-0.1-16.8,0.2-25.2c0.1-3.5,0.7-7.2,2-10.4
			c5.2-12.7,10.8-25.2,16.3-37.7c5.4-12.4,11.7-24.3,20.6-34.6c6.8-7.8,13.6-15.6,20.5-23.3c17.2-19.2,34.8-38,51.4-57.6
			c15.4-18.1,29.8-37.1,44.7-55.7c4-5,11.1-6.3,16.2-2.2c4,3.2,8.5,4.1,13.1,5.3c4.6,1.2,9.2,2.7,13.7,4.2c6.1,2,12.2,4.3,18.4,6.4
			c14.7,5.1,30.1,5.9,45.4,6.7c1.8,0.1,4.1-1.1,5.5-2.4c13.6-13.3,27-26.8,40.4-40.2c1.8-1.8,3.5-3.7,5.9-6.2
			c-1.2-0.8-2.1-1.3-2.8-1.8c-9.9-7.3-19.6-14.8-27.3-24.5c-2.6-3.3-3.9-3.2-8-0.1c-10.1,7.7-20.3,15.4-30.2,23.5
			c-2.9,2.4-5.7,5.6-7,9c-3.7,9.6-9.6,16.8-18.1,22.6c-4,2.7-6.8,2.5-10.4-0.6c-4.2,5.1-8.2,3-11.8-0.4c-2.4-2.3-4.7-4.8-6.6-7.6
			c-1.9-2.9-4.1-5.2-7.4-6.5c-2.9-1.2-5.5-2.9-8.2-4.5c-11.6-6.9-23.8-12.6-36.8-16.1c-9.5-2.6-19.4-3.7-28.6-7
			c-13.4-4.8-27.2-7.7-40.9-11.4c-41.7-11.4-83.3-22.8-124.9-34.3c-14-3.9-27.7-4.3-41.8,0.3c-18,5.9-36.2,11.2-54.4,16.4
			c-3.3,1-7.1,0.8-10.6,0.7C4357,1151.9,4349.9,1151.4,4342.7,1151.1z M5908.3,1110.5c20,0.2,34.8-1.3,49.1-5.9
			c26.5-8.6,43.5-26.6,51.1-53.2c5.4-18.9,4.5-38.1,0.5-57.1c-4.8-22.8-13.6-44.1-24.8-64.4c-19.3-35.2-43.5-66.9-72.3-94.9
			c-22.9-22.2-48-41.5-76.7-55.8c-16.2-8.1-33.1-14.5-51.3-16.1c-19.2-1.7-36.1,3.2-46.6,20.7c-4.4,7.3-7.6,15.6-9.7,23.9
			c-4.8,18.6-8.6,37.5-12.7,56.2c-5.3,24.4-11.4,48.7-13,73.8c-1,15.8,0.2,31.3,4.6,46.4c7.8,26.3,23.2,47.9,43.7,65.9
			c25.1,22,54.2,37.1,85.9,47.2C5861.3,1105.1,5886.9,1110,5908.3,1110.5z M4921.5,1011.8c1.2-9.5-1-17.2-3-24.7
			c-4.7-17.6-9.6-35.2-14.9-52.7c-19.7-64.6-29.3-130.7-32.5-198.1c-1.3-27.1-3.7-54.2-12.5-80.3c-6.3-18.6-15.4-35.6-27.9-50.9
			c-13.6-16.7-29.5-31-47-43.4c-16.5-11.7-33.8-22.1-53.8-27.2c-4.4-1.1-9-1.5-13.5-1.4c-7.7,0.3-13.7,6.2-15.9,14.3
			c-3.8,14.2-1.7,28.3,0.8,42.2c5.4,29.6,13.7,58.5,23.1,87c15.3,46.2,34.6,90.7,57.2,133.8c27.6,52.4,58.1,103.1,93,151
			c10.5,14.4,21.5,28.4,34.6,40.6C4912.7,1005.5,4916.9,1008.2,4921.5,1011.8z M5260,421.5c9.1,1.4,19.8-2.1,30.1-5.7
			c7.3-2.6,14.4-6.9,20.5-11.8c14.4-11.5,24.4-26.2,29.7-44.1c4.6-15.7,4.7-31.5-0.4-46.8c-7.9-23.5-23.7-41.4-43.5-56
			c-10.5-7.7-21.8-14.1-34-18.7c-21-8-42.3-11.6-64.7-5.7c-18.3,4.8-33.3,14.6-46.2,27.9c-5.4,5.6-10,12.4-13.8,19.3
			c-5.7,10.3-9.2,21.6-9.8,33.6c-0.5,9.5,0.7,18.7,4.1,27.5c4,10.3,9.1,20.1,17.1,28.1c4.6,4.6,9,9.3,13.7,13.7
			c8.4,8.1,18.3,14.1,28.4,19.6C5212,413.8,5233.9,421,5260,421.5z M5405.6,65.6c-8.3,0.8-16.7,1.5-25,2.5
			c-3.8,0.4-7.6,1.2-11.3,2.2c-22.5,6.3-43,16.5-61,31.4c-11.8,9.8-21.6,21.3-27.7,35.5c-2.6,6.1-4.4,13.1-4.1,19.6
			c0.5,13.7,5.7,26.3,14.7,36.8c6.8,8.1,14.5,15.2,23.4,21.2c8.1,5.4,16.6,9.6,25.4,13.5c16.8,7.4,34.6,10.3,52.6,9.7
			c16.1-0.5,31.9-5.1,46.1-12.7c25.5-13.6,45.7-32.6,56.5-60.1c5.3-13.4,6-27.4,1.3-40.9c-6.5-18.9-19.7-32.9-36.8-42.8
			C5443.2,71.9,5425.2,66.2,5405.6,65.6z M5589.5,414c-1.6-22.2-2.7-44.6-5-66.7c-3.1-30.4-8.4-60.4-20.1-88.9
			c-4.3-10.6-9.4-20.9-18.9-28.5c-9.8-7.9-23.7-9.5-34.8-3.2c-11.2,6.3-20,15.2-26.8,25.7c-14.6,22.6-20.9,48-19.9,74.7
			c0.8,21.7,6.3,42.7,13.9,63c10.1,26.9,23.3,52.2,40.2,75.5c8.6,11.9,18,23.2,30.4,31.4c9.6,6.4,20.7,7.2,27.7-4.8
			c4.5-7.7,6.7-15.9,8.3-24.3C5588.1,450.1,5588.9,432.1,5589.5,414z M5493.9,599.7c-0.8-7.5-1-14.7-2.3-21.8
			c-4.4-23.2-11.1-45.7-19.8-67.6c-12.7-32.1-27.1-63.2-49.2-90c-8-9.7-17-18.1-29.8-21.4c-7.5-1.9-14.6-0.5-20.7,3
			c-11.7,6.6-19.1,17.2-24.1,29.6c-6.5,16.1-8.9,32.7-7.7,50.1c1,14.1,4.7,27.4,10.1,40.3c9,21.3,22,40,37.1,57.2
			c14.8,16.9,31.6,31.7,50.9,43.4c8.4,5.1,17.4,9.4,27.4,10.6c10.3,1.2,19.2-1.7,24-12.5C5492.8,613.6,5492.6,606.5,5493.9,599.7z
			 M4957.8,696.8c-1.8,11.1-3.1,22.2-3.7,33.5c-1.9,39.5-0.5,78.9,4.3,118.1c3.2,26,7.5,51.8,13.9,77.3c4.7,18.4,10,36.6,18.9,53.6
			c1.1,2.2,2.6,4.2,4.3,6.8c1.1-2,1.7-2.8,2-3.6c8.9-22.3,47.1-87.7,53.5-97.8c12.9-20.5,83.6-171.5,84.9-169
			c11.8-20.1,23.1-39.1,34.2-58.2c12.6-21.6,25.1-43.3,34.8-66.4c7.3-17.4,13.1-35.3,13.4-54.2c0.2-9.4-1.4-19.2-4.1-28.3
			c-3.4-11.3-9.6-21.5-17.8-30.2c-3.6-3.8-7.2-7.7-11-11.3c-8.6-8.2-18.4-14.7-28.8-20.2c-20-10.6-41.1-17.1-64.1-16.2
			c-19.5,0.7-35.7,9-49.5,22.1c-10.9,10.3-19.3,22.6-26.8,36.5c-9.9,18.5-14.2,39.2-18.3,52.8c-5.6,18.5-11.6,39.3-16.8,57.9
			C4972.1,632.9,4963.3,663.2,4957.8,696.8z M5332,834.4c2.7-2,5.3-3.9,7.7-5.8c19.4-14.9,37.1-31.3,50.5-52
			c7.9-12.3,13.5-25.6,16-39.9c3.5-20.6,0-40.7-7.9-59.9c-7.5-18.3-17.9-35-31.3-49.8c-11.1-12.3-23.6-22.8-39-28.8
			c-7-2.7-14.9-4.5-22.4-4.3c-13.8,0.3-25.9,6.4-36.9,14.6c-20.1,15.1-35.2,34.7-49.3,55.2c-19.7,28.5-37,58.5-53.9,88.7
			c-0.7,1.2-1,2.5-1.5,3.9c0,0-79,172.6-83.9,186.9c-9.8,28.6-19.6,57.2-26.2,86.8c-0.9,4.2-1.7,8.4-0.4,13.3
			c7.1-0.7,11.7-4.7,16.1-8.6c17.3-15.3,34.4-30.8,51.4-46.3c32.5-29.6,65.7-58.5,102.2-83.3C5224.7,904.1,5288,865.6,5332,834.4z
			 M4855.6,519.4c0.4-8.1-1.9-16-4.9-23.6c-7.5-19.3-19.3-36-33.6-50.7c-21.2-21.9-45.1-40.4-72.6-53.8c-9.5-4.6-19.5-8.2-30.2-8.8
			c-5.7-0.3-10.8,0.9-15.3,4.8c-7,6.1-7.9,14.3-7.5,22.4c0.7,12.1,5,23.4,11.1,33.9c8,13.9,18.3,25.8,29.9,36.7
			c21.6,20.2,45.7,36.6,72.5,49.1c10.3,4.8,21,8.6,32.4,9.1c11.5,0.6,18.3-4.3,18.2-16C4855.6,521.6,4855.6,520.7,4855.6,519.4z
			 M4724.8,302.7c0.5,3.5,0.7,7.2,1.6,10.6c3.1,11.6,9.6,21.4,17.4,30.3c17.7,20.5,39.1,36.2,63.2,48.1
			c13.8,6.8,28.1,12.4,44.1,10.2c4.9-0.7,9-2.6,12.5-6.2c7.4-7.7,8.2-17.2,7.2-26.9c-1.5-15.8-8.7-29.5-18.2-41.7
			c-15.3-19.6-34.3-34.9-56.4-46.2c-13.4-6.8-27.7-10.9-43-9.5C4738.2,272.9,4723.7,284.5,4724.8,302.7z M5510.9,1018.3
			c-8.8,1.2-17.6,2.1-26.4,3.5c-21.8,3.5-43.6,7.2-65.3,10.9c-17,2.9-33.9,5.9-51.2,9c-31.3,5.8-99.8,16.9-116.1,20
			c-32.1,6-64.2,11.9-96.2,18.2c-12.4,2.5-24.7,6.1-36.9,9.4c-1.8,0.5-3.5,1.8-5.9,3.1c21.3,8.9,357.9,37.2,362.1,37.1
			c29.3-0.5,58.6-0.7,87.9-1.5c8.1-0.2,16.1-1.9,24.5-3c18.3-2.8,46.8-12.5,46.8-12.5c4-2.7,7.6-4.7,10.7-7.3
			c7.6-6.4,11.7-14.3,10.7-24.6c-1.2-12-7.9-21-15.9-29.2c-16.3-16.7-36.8-25.9-59.1-31.2c-7.6-1.8-15.5-2.3-23.3-3.4
			C5557,1017.1,5513.8,1017.9,5510.9,1018.3z M5192.8,971.1c-51.9,34.6-104.9,84.3-104.9,84.3c0.3,0.5,0.5,1,0.8,1.5
			c0.7,0,1.5,0.2,2.1,0c31.7-9.6,63.5-18.9,95-29.1c15.8-5.1,254.3-46.5,311.7-67.3c28.3-11.9,54.3-26.3,77.6-45.1
			c14.7-11.8,28-25,36.5-42.2c6.8-13.8,8.3-27.8,1.2-42.1c-7.5-15-19.6-25.3-33.3-34.1c-15.9-10.2-33.2-17.2-51.7-21
			c-18.1-3.6-35.7-3-53,4c-15.9,6.4-29.2,16.6-42.1,27.4C5355,864.8,5244.7,936.5,5192.8,971.1z M4948.4,516.2c0.8-2,1.4-3,1.7-4.1
			c3.7-11.2,7.3-22.3,11-33.5c2.2-6.5,4.4-13.1,6.6-19.6c-4.3-5.7-8.6-11.6-13.1-17.2c-9.1-11.5-18.6-22.6-30.7-31.3
			c-3.4-2.5-7.5-4.4-11.5-5.8c-5.2-1.8-8.2,0.3-9.1,5.9c-0.5,3.1-0.7,6.2-0.5,9.3c0.7,12.9,4.7,24.9,9.7,36.6
			c6.7,15.7,15.6,30.2,24.9,44.5C4940.8,506.2,4944.5,510.8,4948.4,516.2z M4694.6,690.8c-0.6,0.1-1.2,0.2-1.8,0.3
			c-0.3,1.1-0.6,2.1-0.7,3.2c-2.6,27-0.3,53.5,7,79.8c6.1,22,18.4,39.4,36.6,52.8c10.6,7.8,21.8,14.9,32.7,22.2
			c0.3,0.2,0.8-0.1,2-0.3C4741.3,797.8,4715.8,745.3,4694.6,690.8z M4925.5,614.4c1.1-5.7,1.7-9.9,2.6-14c2.5-11.7,5-23.4,7.6-35.1
			c0.6-2.7,1.1-5.1-1.5-7.1c-8.4-6.7-16.5-13.8-25.2-20.2c-3.6-2.6-8.1-4.1-12.4-5.6c-3.4-1.2-5.2,0-5.2,3.5c0,4.3,0.1,8.7,0.9,12.8
			c4.3,20.5,14.3,38.5,25.8,55.7C4920.1,607.4,4922.5,610.3,4925.5,614.4z M4808.5,912.5c-0.7,11.9,1,16.6,8,22.3
			c10.8,8.9,17.6,20.1,21.3,33.5c4.7,16.9,8.4,34,10.6,51.4c0.7,5.8,1.6,11.6,2.5,17.6c10.2-3.7,19.6-7.2,29.6-10.8
			c-1.8-3.7-3.4-7.1-5.2-10.4C4855.8,979.9,4830.7,947.2,4808.5,912.5z M4829.5,1272.3c14.5-5.4,26.9-14.2,39.4-22.5
			c0.9-0.6,1.8-1.7,2.1-2.7c2.4-8.5,4.6-17.1,6.9-25.9c-2.6-1.7-4.9-3.3-7.6-5.1c-9.6,10.1-18.9,19.7-28.1,29.6
			c-1.8,1.9-3.2,4.2-4.2,6.6C4835.2,1258.7,4832.5,1265.3,4829.5,1272.3z M4931.5,921.5c-5.9-37-11.4-74.2-14.7-111.7
			c-3.3-37.6-3.2-75.3-2.3-113.1c-3.9,7.4-5.4,15.4-5.7,23.5c-0.4,12.5-0.7,25,0,37.4c1.3,22.3,2.9,44.6,5.2,66.8
			C4917.5,857.1,4923.2,889.5,4931.5,921.5z M5148.1,1128.9c-0.1,0.6-0.1,1.3-0.2,1.9c25.4,4.9,50.7,10.3,76.2,14.5
			c28.9,4.8,57.9,8.5,86.9,12.5c5.7,0.8,11.5,0.8,17.3,1c5.5,0.2,11,0,16.5,0c0-0.3,0.1-0.7,0.1-1
			C5279.3,1148.1,5213.7,1138.5,5148.1,1128.9z M5029.1,1071.6c0.1-0.5,0.2-1.1,0.4-1.6c-8.4-7.1-18.5-10.5-29.1-13.8
			c-0.7,2.8-1.4,4.6-1.7,6.5c-1.1,6.7,1.1,9.9,7.8,11c1.9,0.3,3.8,0.5,5.7,0.3C5017.7,1073.2,5023.4,1072.3,5029.1,1071.6z
			 M4862.6,1374.6c8-10.9,12.2-23.1,17-35c1.5-3.7-1-5.9-5-5c-1.8,0.4-3.6,1.2-5.4,1.8C4867,1349.3,4864.8,1362,4862.6,1374.6z
			 M4917.3,1263.5c2.7-3.8,2.7-3.8,2-7.2C4918.6,1258.7,4918.2,1260.4,4917.3,1263.5z"/>
	</g>
</g>
<g>
	<path class="st5" d="M3269,608.4v-2.6h-94.3l-59.3,145.6l-58.6-145.6h-95.1c-0.3,0.8,34.3,73.5,103.8,218.1l-110.4,226.4v2.3h94.3
		l65.2-157.3l65.2,157.3h95.8L3165,822.2L3269,608.4z M449.9,602.2l-116.6,449.3v1.2h88.9l18.1-85.4H553l18.1,85.4h89.3L544.6,602.2
		H449.9z M452.2,909.4l44.2-202.9l43.9,202.9H452.2z M1093.6,847.6c0,7.9,1.9,18.7,5.8,32.5L955.1,602.7h-78.9v449.8h87.7V801.9
		c0-7.9-1.9-18.7-5.8-32.5l144.3,283.1h78.9V602.7h-87.7V847.6z M712.3,1052.6h90V602.7h-90V1052.6z M4197.6,746.6v-106
		c0-23.1-15.7-34.7-47-34.8h-191.3c-31.3,0.1-47,11.9-47,35.4v104.6c0,14.5,6.4,26.4,19.3,35.8l177.5,127.1v87.7h-108.3v-90.7h-88.4
		v111.3c0,23.5,15.7,35.3,47,35.4h191.3c31.3-0.1,47-11.9,47-35.4V905.5c0-15.1-6.4-27.2-19.3-36.4l-177.5-126.6v-80.7h108.3v84.8
		H4197.6z M3716.6,605.8h-88.4v446.7H3861v-59.7h-144.5V605.8z M770.6,452.3V126.2c0-62.8-46.1-94.2-138.2-94.2H40V1056h226.1V547.9
		h366.3C724.5,547.9,770.6,516,770.6,452.3z M542.5,416.3H266.1V163.5h276.4V416.3z M1227.1,662.2h99.3v390.3h89.6V662.2h99.3v-59.5
		h-288.2V662.2z M3246.9,452.3V126.2c0-62.8-46.1-94.2-138.2-94.2h-592.4V1056h226.1V547.9h366.3
		C3200.8,547.9,3246.9,516,3246.9,452.3z M3018.8,416.3h-276.4V163.5h276.4V416.3z M3410,853.5h133.4v-58.2H3410V664.8h154.8v-59
		h-243.2v446.7H3567v-59h-157V853.5z M2818.6,1052.6h88.4V605.8h-88.4V1052.6z M2346.6,602.7h-188.1c-36.4,0-54.6,13.8-54.6,41.4
		v367.3c0,27.4,17.8,41.1,53.5,41.1h189.3c36.7,0,55-13.7,55-41.1V811.7h-157.3v57.2h66.9v125.9h-117.3V660.5h117.3v79.6h90.4v-96
		C2401.6,616.5,2383.3,602.7,2346.6,602.7z M1943.8,847.6c0,7.9,1.9,18.7,5.8,32.5l-144.3-277.4h-78.9v449.8h87.7V801.9
		c0-7.9-1.9-18.7-5.8-32.5l144.3,283.1h78.9V602.7h-87.7V847.6z M1562.5,1052.6h90V602.7h-90V1052.6z"/>
</g>
<g>
	<path class="st5" d="M177.8,1220c8.3,0,14.8,0.5,19.6,1.4c4.8,0.9,10.2,3,16.2,6.2c-1.8,9.2-4,18.5-6.5,27.9
		c-2.5,9.4-4.8,19.6-6.9,30.7c-2.1,11-3.8,23.1-5.2,36.2c-1.4,13.1-2.1,27.7-2.1,43.8c0,16.1,1.6,31.8,4.8,47.2
		c3.2,15.4,8.5,30.4,15.8,45.1c20.2-28,37.3-57.5,51.3-88.5c14-31,22.2-63.3,24.5-96.8c2.3-0.5,4.6-0.7,6.9-0.7c2.3,0,4.6,0,6.9,0
		c10.6,0,22.7,2.8,36.5,8.3c-2.3,6.9-6.5,17.7-12.7,32.4c-6.2,14.7-12.4,32.5-18.6,53.4c-6.2,20.9-11.7,44.2-16.5,69.9
		c-4.8,25.7-7.2,52.6-7.2,80.6c0,11,1,21.9,3.1,32.7c2.1,10.8,5.3,20.7,9.6,29.6c4.4,9,10.2,16.8,17.6,23.4
		c7.3,6.7,16.5,11.4,27.6,14.1c6-0.5,11.4-1.5,16.2-3.1c4.8-1.6,10.2-4.5,16.2-8.6c6-4.1,12.9-10,20.7-17.6
		c7.8-7.6,17.7-17.6,29.6-30c-20.7,63.8-50.1,95.8-88.2,95.8c-13.3,0-25.3-3.3-35.8-10c-10.6-6.7-19.6-15.4-27.2-26.2
		c-7.6-10.8-13.4-22.9-17.6-36.2c-4.1-13.3-6.2-26.6-6.2-40c0-10.1,0.7-22.8,2.1-38.2c1.4-15.4,5.5-37.3,12.4-65.8
		c-7.8,17.5-14.9,30.6-21.4,39.3c-6.4,8.7-13.8,16.3-22,22.7c-16.5-0.9-30.4-10.4-41.7-28.6c-11.3-18.1-16.9-46.7-16.9-85.8
		c-7.8,33.5-15.3,63.5-22.4,89.9c-7.1,26.4-15.1,52.5-23.8,78.2c-4.1,12.4-8.4,24.1-12.7,35.1c-4.4,11-9.3,21.6-14.8,31.7
		c-5.5,10.1-11.8,19.5-18.9,28.2c-7.1,8.7-15.7,16.8-25.8,24.1c6.4-14.2,11.8-26.5,16.2-36.9c4.4-10.3,8.3-20.3,11.7-30
		c3.4-9.6,6.7-19.3,9.6-28.9c3-9.6,6.3-20.9,10-33.8c0.5-1.8,1.7-6.5,3.8-14.1s4.6-16.9,7.6-27.9c3-11,6.3-23.5,10-37.6
		c3.7-14,7.6-28.8,11.7-44.4c5.5-20.7,11.1-41.7,16.9-63c5.7-21.4,11.1-41.3,16.2-59.9c5-18.6,9.3-34.6,12.7-47.9
		C174,1234.2,176.5,1225.1,177.8,1220z"/>
	<path class="st5" d="M381.8,1346.1c2.3,2.3,4.5,5.9,6.5,10.7c2.1,4.8,3.1,10.9,3.1,18.3c0,3.7-0.5,7.1-1.4,10.3
		c-0.9,3.2-1.8,6.4-2.8,9.6c-3.2,8.7-6.4,17.8-9.6,27.2c-3.2,9.4-6.2,19.2-9,29.3c-3.7,12.9-6.8,25.6-9.3,38.2
		c-2.5,12.6-3.8,24.2-3.8,34.8c0,3.7,1.1,7.7,3.4,12.1c2.3,4.4,6.4,7.5,12.4,9.3c14.7-12.4,26.2-27.9,34.5-46.5
		c8.3-18.6,14.7-37.8,19.3-57.5c3.7-15.2,6.2-29.9,7.6-44.1c1.4-14.2,2.5-26.6,3.4-37.2c6.9-1.4,13.8-2.1,20.7-2.1
		c5,0,11,0.7,17.9,2.1c-2.3,12.9-4.8,26.6-7.6,41.3c-2.8,14.7-5.2,29.4-7.2,44.1c-2.1,14.7-3.8,28.9-5.2,42.7
		c-1.4,13.8-2.1,26.2-2.1,37.2c0,5.1,0.7,10.3,2.1,15.8c1.4,5.5,4.1,11,8.3,16.5c7.3,10.1,19.1,18.4,35.1,24.8
		c-13.8,10.1-27.6,15.2-41.3,15.2c-8.7,0-16.1-4.8-22-14.5c-3.7-5.5-6.5-12.6-8.6-21.4c-2.1-8.7-3.3-19.5-3.8-32.4
		c-7.8,12.4-14.4,22-19.6,28.9c-5.3,6.9-10,12.1-14.1,15.5c-4.1,3.4-8.2,5.5-12.1,6.2c-3.9,0.7-8.2,1-12.7,1c-8.7,0-16-1.8-21.7-5.5
		c-5.7-3.7-10.2-8.6-13.4-14.8c-3.2-6.2-5.5-13.4-6.9-21.7c-1.4-8.3-2.1-16.8-2.1-25.5c0-6.9,1.3-17.5,3.8-31.7
		c2.5-14.2,6.5-29.9,12.1-46.9c5-16.1,11.4-32,18.9-47.9C362.1,1371.9,371.2,1358,381.8,1346.1z"/>
	<path class="st5" d="M563.7,1518.3c0,22.5-3.6,39.3-10.7,50.3c-7.1,11-15.7,16.5-25.8,16.5c-13.8,0-23.1-4.7-27.9-14.1
		c-4.8-9.4-7.2-23.8-7.2-43.1c0-11.5,1.5-28,4.5-49.6c3-21.6,9.1-51,18.3-88.2c5.5-22,12.3-45.2,20.3-69.6c8-24.3,16-49.8,23.8-76.5
		c5-17.5,9.9-35.4,14.5-53.7c4.6-18.4,8.7-37,12.4-55.8c4.6,10.6,8.1,20.9,10.7,31c2.5,10.1,3.8,20.2,3.8,30.3
		c0,16.5-2.5,35.5-7.6,56.8c-5.1,21.4-12.4,48.3-22,81c-13.3,45.5-23.4,86.1-30.3,122c-6.9,35.8-10.3,62.9-10.3,81.3
		c0.9,5.5,3.2,8.3,6.9,8.3c3.2,0,6.2-1,9-3.1c2.8-2.1,5.3-4.6,7.6-7.6c2.3-3,4.2-6,5.9-9C560.8,1522.6,562.3,1520.2,563.7,1518.3z"
		/>
	<path class="st5" d="M691.8,1346.8c7.8,0,17.1,2.5,27.9,7.6c10.8,5.1,24.9,14.9,42.4,29.6c-17.9,1.4-33,2.9-45.1,4.5
		c-12.2,1.6-22.9,3.1-32,4.5c-9.2,1.4-17.5,2.8-24.8,4.1c-7.4,1.4-15.2,2.5-23.4,3.4c-4.1,16.1-9.4,32.7-15.8,50
		c-6.4,17.2-9.6,36.2-9.6,56.8c0,3.7,0.2,7.4,0.7,11c0.5,3.7,1.6,7.1,3.4,10.3c3.2,5.5,7.3,8.3,12.4,8.3c3.7,0,7.6-1.9,11.7-5.9
		c4.1-3.9,8.3-8.8,12.4-14.8c6-9.2,11.1-19.4,15.5-30.7c4.4-11.3,6.5-21.2,6.5-30c0-6.4-0.6-12.5-1.7-18.3
		c-1.2-5.7-3.3-12.3-6.5-19.6c16.5,11,24.8,27.6,24.8,49.6c0,10.6-1.4,21.5-4.1,32.7c-2.8,11.3-6.7,22.2-11.7,32.7
		c-6.9,14.2-15.6,26.2-26.2,35.8c-10.6,9.6-21.8,14.5-33.8,14.5c-6.4,0-12.4-1.3-17.9-3.8c-5.5-2.5-10.1-6.8-13.8-12.7
		c-3.2-5-5.7-11-7.6-17.9c-1.8-6.9-2.8-15.2-2.8-24.8c0-23.4,2.3-46.3,6.9-68.6c4.6-22.3,10.3-41.4,17.2-57.5
		c-5.5-1.4-11.1-3.2-16.9-5.5c-5.7-2.3-11-5.7-15.8-10.3c-4.8-4.6-8.7-10.3-11.7-17.2c-3-6.9-4.5-15.4-4.5-25.5
		c8.3,2.8,18.9,5.3,32,7.6c13.1,2.3,24,3.4,32.7,3.4c11.9-25.7,22.8-50.2,32.7-73.4c9.9-23.2,17.8-48.1,23.8-74.8
		c7.3,14.2,11,28.2,11,42c0,18.8-2.9,37.4-8.6,55.8c-5.7,18.4-12.1,34.9-18.9,49.6c6,0,12.3-0.5,18.9-1.4
		C678.1,1347.2,684.9,1346.8,691.8,1346.8z"/>
	<path class="st5" d="M805.5,1481.8c1.8,4.6,3,7.9,3.4,10c0.5,2.1,0.7,4.3,0.7,6.5c0,15.6-5.1,32.2-15.2,49.6
		c-5.1,7.8-10.9,14.9-17.6,21.4c-6.7,6.4-14.6,11.2-23.8,14.5c-6.9,0-12.7-2-17.6-5.9c-4.8-3.9-9-9.2-12.4-15.8
		c-3.4-6.7-6-14.4-7.6-23.1c-1.6-8.7-2.4-17.7-2.4-26.9c0-14.7,1.7-29.2,5.2-43.4c3.4-14.2,7.9-28.2,13.4-42
		c6-13.8,12.7-27.3,20.3-40.7c7.6-13.3,15.3-26.2,23.1-38.6c4.1,0.9,8.7,3.1,13.8,6.5c5,3.4,10.6,9.1,16.5,16.9
		c-10.1,17.9-18.5,34.6-25.1,50c-6.7,15.4-11.8,29.5-15.5,42.4c-4.6,15.6-7.6,28.9-9,40c-1.4,11-2.1,19.8-2.1,26.2
		c0,5.5,1.4,8.3,4.1,8.3c4.6,0,9.2-1.6,13.8-4.8c4.6-3.2,9-7.3,13.1-12.4c4.6-5.5,8.6-11.7,12.1-18.6
		C800.3,1494.9,803.2,1488.3,805.5,1481.8z M800,1326.8c-6.4-2.3-10.9-7.7-13.4-16.2c-2.5-8.5-3.8-18.5-3.8-30
		c0-11.5,0.7-21,2.1-28.6c1.4-7.6,3.2-14.5,5.5-20.7c2.3-6.2,4.9-12.5,7.9-18.9c3-6.4,6.1-14.2,9.3-23.4c9.2,0,16.2,4.3,21,12.7
		c4.8,8.5,7.2,17.3,7.2,26.5c0,9.2-1.5,17.8-4.5,25.8c-3,8-6.4,16-10.3,23.8c-3.9,7.8-7.8,15.6-11.7,23.4
		C805.4,1309.1,802.3,1317.6,800,1326.8z"/>
	<path class="st5" d="M933.6,1348.2c11.5,0,19.3,2.6,23.4,7.9c4.1,5.3,6.2,15.3,6.2,30c7.8-13.8,15-23.3,21.7-28.6
		c6.7-5.3,13.9-7.9,21.7-7.9c9.2,0,16.6,2.5,22.4,7.6c5.7,5.1,10.2,12,13.4,20.7c2.8,7.8,4.7,16.3,5.9,25.5
		c1.1,9.2,1.7,19.1,1.7,29.6c0,14.2-0.9,29.3-2.8,45.1c-1.9,15.8-4.2,31.3-7,46.5c-2.8,15.2-6,29.4-9.5,42.7
		c-3.5,13.3-6.7,24.8-9.5,34.4c-6.1-1.8-15.5-6.9-28.4-15.2c2.8-11,5.5-23.4,8.3-37.2c2.8-13.8,5.2-27.7,7.2-41.7
		c2.1-14,3.8-27.6,5.2-40.7s2.1-24.7,2.1-34.8c0-9.2-0.9-17.7-2.7-25.5c-1.8-7.8-4.3-13.3-7.5-16.5c-10,6.4-18.7,14-26,22.7
		c-6.4,7.8-11.4,15.8-15,24.1c-3.6,8.3-6.8,17-9.6,26.2c-0.9,2.8-2.4,7.6-4.4,14.5c-2,6.9-4.8,15-8.2,24.5
		c-3.4,9.4-7.1,19.9-11,31.3c-3.9,11.5-7.9,23-12,34.5c-2.8-0.5-7.1-2.3-13.1-5.5c-6-3.2-12.9-7.1-20.7-11.7c7.3-17.9,14-35.2,20-52
		c6-16.8,11-32,15.2-45.8c4.1-13.8,7.3-25.4,9.6-34.8c2.3-9.4,3.4-15.7,3.4-18.9c0-7.3-0.2-11.5-0.7-12.4
		c-8.7,5.1-16.4,10.8-23.1,17.2c-6.7,6.4-12.7,13.3-18.3,20.7c-9.2,11.9-16.8,24.9-22.7,38.9c-6,14-11,28.4-15.2,43.1
		c-4.1,14.7-7.6,29.4-10.3,44.1c-2.8,14.7-5.7,28.5-9,41.3c-5.1-2.3-14.5-10.6-28.2-24.8c3.2-19.3,7.6-37.9,13.1-55.8
		s10.9-35.2,16.2-52c5.3-16.8,9.9-33.1,13.8-48.9c3.9-15.8,5.9-31.1,5.9-45.8c0-4.1-1.3-9.3-3.8-15.5c-2.5-6.2-10.2-13.4-23.1-21.7
		c6.9-1.8,13.5-2.8,20-2.8c11.9,0,20.2,4,24.8,12.1c4.6,8,6.9,20.1,6.9,36.2c0,3.2,0,6.2,0,9c0,2.8-0.2,6-0.7,9.6
		c9.2-12.4,18.1-22.7,26.9-31C914.8,1352.3,924,1348.2,933.6,1348.2z"/>
	<path class="st5" d="M1176.9,1348.2c15.2,0,29.7,3.8,43.8,11.4c14,7.6,23.1,21.7,27.2,42.4c-3.7,12.4-10.5,25.6-20.3,39.6
		c-9.9,14-21.3,26.1-34.1,36.2c-8.3,6.4-16.9,11.6-25.8,15.5c-9,3.9-17.8,5.9-26.5,5.9c-5.1,0-10.1-1.1-15.2-3.4
		c-5.1-2.3-9-7.3-11.7-15.2c-3.7,6.8-6.4,13.6-8.3,20.4c-1.8,6.8-2.8,12.9-2.8,18.4c0,5.9,3.3,10.2,10,12.9
		c6.7,2.7,14.6,4.1,23.8,4.1c9.2,0,19.1-1.9,29.6-5.8c10.6-3.9,21.1-9,31.7-15.4c14.7-8.7,28.6-19.1,41.7-31.5
		c13.1-12.3,23.5-25.5,31.3-39.7c-0.5,24.8-5.9,45.9-16.2,63.4c-10.3,17.5-22.9,31.7-37.6,42.7c-14.2,11-28.7,19.1-43.4,24.1
		c-14.7,5-26.4,7.6-35.1,7.6c-12.4,0-23-2.2-31.7-6.5c-8.7-4.4-15.7-10.1-21-17.2c-5.3-7.1-9.1-15.4-11.4-24.8
		c-2.3-9.4-3.4-19.2-3.4-29.3c0-15.2,3.9-32.3,11.7-51.3c7.8-19.1,17.7-36.6,29.6-52.7c9.6-13.3,20.1-24.7,31.3-34.1
		C1155.4,1356.3,1166.3,1350.5,1176.9,1348.2z M1129.3,1454.9c5.5,0,13.4-1.5,23.8-4.5c10.3-3,20.3-7,30-12.1
		c8.7-4.6,16.2-10,22.4-16.2c6.2-6.2,9.3-13.2,9.3-21c0-5.5-5.1-8.3-15.2-8.3c-6.9,0.9-13.4,3.2-19.6,6.9c-6.2,3.7-12.1,8-17.6,13.1
		c-7.8,7.4-14.5,14.9-20,22.7C1136.9,1443.5,1132.5,1449.9,1129.3,1454.9z"/>
	<path class="st5" d="M1508.3,1156.6c-1.4,12-3.2,23-5.5,33.1c-2.3,10.1-4.7,19.9-7.2,29.3c-2.5,9.4-5.3,18.9-8.3,28.6
		c-3,9.6-6.1,19.8-9.3,30.3c-18.8,66.1-33.3,119.1-43.4,158.8c-10.1,39.7-15.2,69.9-15.2,90.6c0,6,0.9,10.8,2.8,14.5
		c1.8,3.7,4.6,5.5,8.3,5.5c6.9,0,12.7-1.8,17.6-5.5c4.8-3.7,9.1-7.6,12.7-11.7c-2.3,14.7-7,27.6-14.1,38.6
		c-7.1,11-15.1,16.5-23.8,16.5c-10.1,0-18-4.1-23.8-12.4c-5.7-8.3-8.6-22.7-8.6-43.4c0-2.8,0.1-6.2,0.3-10.3
		c0.2-4.1,0.8-8.3,1.7-12.4c-6,10.1-11.8,19.4-17.6,27.9c-5.7,8.5-11.6,16-17.6,22.4c-13.3,14.7-26,22.5-37.9,23.4
		c-16.1-3.2-27.6-9.4-34.5-18.6c-6.9-9.2-10.3-21.1-10.3-35.8c0-23.4,3.4-43.9,10.3-61.3c6.9-17.5,15.8-33.3,26.9-47.5
		c11-13.8,23.4-26.3,37.2-37.6c13.8-11.2,27.8-22.4,42-33.4c2.3,0,6.5,0.7,12.7,2.1c6.2,1.4,11.4,2.5,15.5,3.4
		c2.3-8.3,5.3-18.5,9-30.7c3.7-12.2,7.6-25.1,11.7-38.9c4.1-13.8,8.3-27.4,12.4-41c4.1-13.5,8-25.8,11.7-36.9
		c3.2-10.6,6.7-18.9,10.3-25.1c3.7-6.2,7.2-10.8,10.7-13.8c3.4-3,7.1-5,11-6.2C1500.1,1157.9,1504.1,1157.1,1508.3,1156.6z
		 M1312.6,1532.8c5,0,10.4-2.1,16.2-6.2c5.7-4.1,11.4-9.4,16.9-15.8c6.4-7.3,12.3-15,17.6-23.1c5.3-8,9.8-14.8,13.4-20.3
		c2.8-4.6,5.9-10.2,9.3-16.9c3.4-6.7,6.9-13.5,10.3-20.7c3.4-7.1,6.5-14.1,9.3-21c2.8-6.9,4.8-13.1,6.2-18.6
		c-11.5,0.9-23.2,6.4-35.1,16.5c-12,10.1-23.2,22-33.8,35.8c-11,14.7-20.2,30-27.6,45.8c-7.4,15.8-11,28.4-11,37.5
		C1304.3,1530.5,1307.1,1532.8,1312.6,1532.8z"/>
	<path class="st5" d="M1558.6,1481.8c1.8,4.6,3,7.9,3.4,10c0.5,2.1,0.7,4.3,0.7,6.5c0,15.6-5.1,32.2-15.2,49.6
		c-5.1,7.8-10.9,14.9-17.6,21.4c-6.7,6.4-14.6,11.2-23.8,14.5c-6.9,0-12.7-2-17.6-5.9c-4.8-3.9-9-9.2-12.4-15.8
		c-3.4-6.7-6-14.4-7.6-23.1c-1.6-8.7-2.4-17.7-2.4-26.9c0-14.7,1.7-29.2,5.2-43.4c3.4-14.2,7.9-28.2,13.4-42
		c6-13.8,12.7-27.3,20.3-40.7c7.6-13.3,15.3-26.2,23.1-38.6c4.1,0.9,8.7,3.1,13.8,6.5c5,3.4,10.6,9.1,16.5,16.9
		c-10.1,17.9-18.5,34.6-25.1,50c-6.7,15.4-11.8,29.5-15.5,42.4c-4.6,15.6-7.6,28.9-9,40c-1.4,11-2.1,19.8-2.1,26.2
		c0,5.5,1.4,8.3,4.1,8.3c4.6,0,9.2-1.6,13.8-4.8c4.6-3.2,9-7.3,13.1-12.4c4.6-5.5,8.6-11.7,12.1-18.6
		C1553.4,1494.9,1556.3,1488.3,1558.6,1481.8z M1553,1326.8c-6.4-2.3-10.9-7.7-13.4-16.2c-2.5-8.5-3.8-18.5-3.8-30
		c0-11.5,0.7-21,2.1-28.6s3.2-14.5,5.5-20.7c2.3-6.2,4.9-12.5,7.9-18.9c3-6.4,6.1-14.2,9.3-23.4c9.2,0,16.2,4.3,21,12.7
		c4.8,8.5,7.2,17.3,7.2,26.5c0,9.2-1.5,17.8-4.5,25.8c-3,8-6.4,16-10.3,23.8c-3.9,7.8-7.8,15.6-11.7,23.4
		C1558.4,1309.1,1555.3,1317.6,1553,1326.8z"/>
	<path class="st5" d="M1710.1,1348.8c11.9,1.8,22.6,6.5,32,14.1c9.4,7.6,16,17.8,19.6,30.7c-7.4,12-14.6,24.9-21.7,38.9
		c-7.1,14-13.2,27.5-18.3,40.3c-3.7,9.2-6.5,17.3-8.6,24.5c-2.1,7.1-3.1,13.2-3.1,18.3c0,8.7,4.4,17.1,13.1,25.1
		c8.7,8,21.4,12.1,37.9,12.1c-4.1,13.3-9.5,22.5-16.2,27.6c-6.7,5-12.7,7.6-18.3,7.6c-14.7,0-25.6-4.1-32.7-12.4
		c-7.1-8.3-10.7-21.6-10.7-40c0-6,0.7-13.1,2.1-21.4c-11.5,22-23.8,38.7-36.9,50c-13.1,11.3-25.6,16.9-37.6,16.9
		c-6,0-11.1-1.8-15.5-5.5c-4.4-3.7-7.9-8.5-10.7-14.5c-2.8-6-4.8-12.5-6.2-19.6c-1.4-7.1-2.1-13.9-2.1-20.3
		c0-19.3,4.2-37.9,12.7-55.8c8.5-17.9,19.2-34.5,32-49.6c13.8-16.1,28.7-30,44.8-41.7C1682.1,1362.3,1696.8,1353.9,1710.1,1348.8z
		 M1719.8,1396.4c-12.4,7.8-24.4,16.1-35.8,24.8c-11.5,8.7-21.8,17.7-31,26.9c-16.1,16.1-29.1,32.3-38.9,48.6
		c-9.9,16.3-15,31.6-15.5,45.8c19.7-5,36.9-15,51.3-30c14.5-14.9,27-30.9,37.6-47.9c8.3-13.8,15-26.9,20.3-39.3
		C1713,1412.9,1717,1403.3,1719.8,1396.4z"/>
	<path class="st5" d="M2009.8,1231c25.7,0,50.2,4,73.4,12.1c23.2,8,44,18.7,62.4,32c19.3,14.2,34.8,30.7,46.5,49.3
		c11.7,18.6,17.6,37.6,17.6,56.8c0,11.5-2.3,23.1-6.9,34.8c-4.6,11.7-10.8,23.3-18.6,34.8c-7.8,11.5-16.9,22.6-27.2,33.4
		c-10.3,10.8-21.5,21-33.4,30.7c-12.4,10.1-25.1,19.3-38.2,27.6c-13.1,8.3-25.8,15.4-38.2,21.4c-12.4,6-24.2,10.7-35.5,14.1
		c-11.3,3.4-21.3,5.2-30,5.2c-6.9,0-13.8-1.6-20.7-4.8c-1.8,6.4-3.9,12.7-6.2,18.9c-2.3,6.2-4.6,10.7-6.9,13.4
		c-6.9-5.1-11.7-12.1-14.5-21c-2.8-9-4.1-18.5-4.1-28.6c0-19.7,2.8-40.4,8.3-62c5.5-21.6,12.4-44.5,20.7-68.9
		c8.3-24.3,17.1-50,26.5-76.8c9.4-26.9,18.3-55.5,26.5-85.8h-12.4c-9.2,0-18.9,1.6-29.3,4.8c-10.3,3.2-22.9,8-37.6,14.5
		c16.5-22.5,31.3-37.4,44.4-44.8C1989.5,1234.7,2000.6,1231,2009.8,1231z M2042.2,1273.7c-13.8,40-26.8,81.2-38.9,123.7
		c-12.2,42.5-22.9,84.6-32,126.4c14.7-3.7,33.6-9.5,56.8-17.6c23.2-8,46.3-18.3,69.2-30.7c11.9-6.4,23.2-13.3,33.8-20.7
		c10.6-7.3,19.9-15.2,27.9-23.4c8-8.3,14.5-16.9,19.3-25.8c4.8-9,7.2-18.3,7.2-27.9c0-13.8-5.5-27.4-16.5-41
		c-11-13.5-24.6-25.4-40.7-35.5c-13.3-8.3-27.6-14.9-42.7-20C2070.5,1276.3,2056,1273.7,2042.2,1273.7z"/>
	<path class="st5" d="M2315.1,1348.2c15.2,0,29.7,3.8,43.8,11.4c14,7.6,23.1,21.7,27.2,42.4c-3.7,12.4-10.5,25.6-20.3,39.6
		c-9.9,14-21.3,26.1-34.1,36.2c-8.3,6.4-16.9,11.6-25.8,15.5c-9,3.9-17.8,5.9-26.5,5.9c-5.1,0-10.1-1.1-15.2-3.4
		c-5.1-2.3-9-7.3-11.7-15.2c-3.7,6.8-6.4,13.6-8.3,20.4c-1.8,6.8-2.8,12.9-2.8,18.4c0,5.9,3.3,10.2,10,12.9
		c6.7,2.7,14.6,4.1,23.8,4.1c9.2,0,19.1-1.9,29.6-5.8c10.6-3.9,21.1-9,31.7-15.4c14.7-8.7,28.6-19.1,41.7-31.5
		c13.1-12.3,23.5-25.5,31.3-39.7c-0.5,24.8-5.9,45.9-16.2,63.4c-10.3,17.5-22.9,31.7-37.6,42.7c-14.2,11-28.7,19.1-43.4,24.1
		c-14.7,5-26.4,7.6-35.1,7.6c-12.4,0-23-2.2-31.7-6.5c-8.7-4.4-15.7-10.1-21-17.2c-5.3-7.1-9.1-15.4-11.4-24.8
		c-2.3-9.4-3.4-19.2-3.4-29.3c0-15.2,3.9-32.3,11.7-51.3c7.8-19.1,17.7-36.6,29.6-52.7c9.6-13.3,20.1-24.7,31.3-34.1
		C2293.6,1356.3,2304.5,1350.5,2315.1,1348.2z M2267.5,1454.9c5.5,0,13.4-1.5,23.8-4.5c10.3-3,20.3-7,30-12.1
		c8.7-4.6,16.2-10,22.4-16.2c6.2-6.2,9.3-13.2,9.3-21c0-5.5-5.1-8.3-15.2-8.3c-6.9,0.9-13.4,3.2-19.6,6.9c-6.2,3.7-12.1,8-17.6,13.1
		c-7.8,7.4-14.5,14.9-20,22.7C2275.1,1443.5,2270.7,1449.9,2267.5,1454.9z"/>
	<path class="st5" d="M2503.8,1349.5c8.3,0,15.2,1.4,20.7,4.1c5.5,2.8,9.9,6.4,13.1,11c3.2,4.6,5.5,9.8,6.9,15.5
		c1.4,5.7,2.1,11.6,2.1,17.6c-5.1-1.4-8.7-2.1-11-2.1c-10.6,0-21.6,2-33.1,5.9c-11.5,3.9-22,9.1-31.7,15.5
		c-10.6,6.9-19.3,14.7-26.2,23.4c-6.9,8.7-10.3,17-10.3,24.8c0,3.7,2.9,9,8.6,15.8c5.7,6.9,13,14.5,21.7,22.7
		c10.1,9.6,20.8,19.4,32,29.3c11.2,9.9,20.8,18.7,28.6,26.5c-14.2,11.5-28.7,20.8-43.4,27.9c-14.7,7.1-28.5,12.7-41.3,16.9
		c-10.6,3.7-20.3,6.2-29.3,7.6s-16,2.1-21,2.1c-8.3,0-14.8-3.6-19.6-10.7c-4.8-7.1-7.2-14.6-7.2-22.4c0-10.6,1.6-18.3,4.8-23.1
		c3.2-4.8,7.4-7.9,12.4-9.3c-0.5,1.8-0.7,4.4-0.7,7.6c0,5.1,2.3,7.6,6.9,7.6c6.4,0,13.1-0.2,20-0.7c6.9-0.5,13.5-1.6,20-3.4
		c11.9-2.8,24.6-7.6,37.9-14.5c-7.8-3.7-14.7-8.1-20.7-13.4c-6-5.3-11.3-10.9-15.8-16.9c-12.9-17-19.3-36.7-19.3-59.3
		c0-14.2,3.8-28.2,11.4-42s16.9-25.9,27.9-36.5c9.2-8.3,18.5-14.9,27.9-20C2485.3,1352.1,2494.7,1349.5,2503.8,1349.5z"/>
	<path class="st5" d="M2631.3,1481.8c1.8,4.6,3,7.9,3.4,10c0.5,2.1,0.7,4.3,0.7,6.5c0,15.6-5.1,32.2-15.2,49.6
		c-5.1,7.8-10.9,14.9-17.6,21.4c-6.7,6.4-14.6,11.2-23.8,14.5c-6.9,0-12.7-2-17.6-5.9c-4.8-3.9-9-9.2-12.4-15.8
		c-3.4-6.7-6-14.4-7.6-23.1c-1.6-8.7-2.4-17.7-2.4-26.9c0-14.7,1.7-29.2,5.2-43.4c3.4-14.2,7.9-28.2,13.4-42
		c6-13.8,12.7-27.3,20.3-40.7c7.6-13.3,15.3-26.2,23.1-38.6c4.1,0.9,8.7,3.1,13.8,6.5c5,3.4,10.6,9.1,16.5,16.9
		c-10.1,17.9-18.5,34.6-25.1,50c-6.7,15.4-11.8,29.5-15.5,42.4c-4.6,15.6-7.6,28.9-9,40c-1.4,11-2.1,19.8-2.1,26.2
		c0,5.5,1.4,8.3,4.1,8.3c4.6,0,9.2-1.6,13.8-4.8c4.6-3.2,9-7.3,13.1-12.4c4.6-5.5,8.6-11.7,12.1-18.6
		C2626.1,1494.9,2629,1488.3,2631.3,1481.8z M2625.8,1326.8c-6.4-2.3-10.9-7.7-13.4-16.2c-2.5-8.5-3.8-18.5-3.8-30
		c0-11.5,0.7-21,2.1-28.6s3.2-14.5,5.5-20.7c2.3-6.2,4.9-12.5,7.9-18.9c3-6.4,6.1-14.2,9.3-23.4c9.2,0,16.2,4.3,21,12.7
		c4.8,8.5,7.2,17.3,7.2,26.5c0,9.2-1.5,17.8-4.5,25.8c-3,8-6.4,16-10.3,23.8c-3.9,7.8-7.8,15.6-11.7,23.4
		C2631.2,1309.1,2628.1,1317.6,2625.8,1326.8z"/>
	<path class="st5" d="M2687.1,1578.3c-17.5,0-31.2-5.8-41.3-17.5c-10.1-11.7-15.2-27.4-15.2-47.1c0-17.8,3.7-35.8,11-53.9
		c7.3-18.1,17.5-34.7,30.3-49.8c11.9-14.7,25.9-27.2,42-37.8c16.1-10.5,33.1-17.9,51-22c5.5,0.9,11.6,2.1,18.3,3.4
		c6.7,1.4,12.7,3.2,18.3,5.5c0.5,5.5,0.8,13.3,1,23.4c0.2,10.1,0.3,18.6,0.3,25.5c0,16.5-0.5,34.2-1.4,53.1
		c-0.9,18.8-2.3,37.6-4.1,56.2c-1.8,18.6-3.8,36.5-5.9,53.7c-2.1,17.2-4,33-5.9,47.2c-2.3,15.2-5.6,28.5-10,40
		c-4.4,11.5-9.8,21.6-16.2,30.3c-11.5,15.2-26.1,26.1-43.8,32.7c-17.7,6.7-38.9,10-63.7,10c-6.4,0-13.6-1.6-21.4-4.8
		c-7.8-3.2-14.9-7.9-21.4-13.9c-5-5.1-9.1-10.6-12.1-16.6c-3-6-4.5-12.9-4.5-20.8c0-12.9,3.4-25,10.3-36c6.9-11.1,18.6-20.1,35.1-27
		c-4.6,7.3-8.2,13.5-10.7,18.6c-2.5,5-4.5,9.6-5.9,13.8c-1.4,4.1-2.3,8.3-2.8,12.4c-0.5,4.1-0.7,8.7-0.7,13.8
		c0,4.1,3.4,7.6,10.3,10.3c3.7,1.4,8.3,2.5,13.8,3.4c5.5,0.9,12.6,1.4,21.4,1.4c17,0,30.9-3.4,41.7-10.3
		c10.8-6.9,19.9-16.8,27.2-29.6c8.3-14.7,14.8-32.7,19.6-54.1s9.5-45.4,14.1-72c-4.1,8.3-9.2,15.8-15.2,22.7
		c-6,6.9-12.2,12.9-18.6,17.9C2717,1572.3,2701.8,1578.3,2687.1,1578.3z M2676.1,1539c6,0,12.7-2.1,20.3-6.2
		c7.6-4.1,15.3-9.2,23.1-15.2c7.3-5.5,14-11.2,20-17.2c6-6,10.8-11.5,14.5-16.5c7.3-10.1,11.8-19.2,13.4-27.2
		c1.6-8,2.4-16.9,2.4-26.5c0-23.4-2.3-35.1-6.9-35.1c-6.9,0-16,4.5-27.2,13.4c-11.3,9-22.2,19.6-32.7,32
		c-12,14.2-22.5,29.1-31.7,44.4c-9.2,15.4-13.8,27.9-13.8,37.6c0,3.2,1.1,6.8,3.4,10.7C2663.2,1537.1,2668.3,1539,2676.1,1539z"/>
	<path class="st5" d="M2955.1,1349.5c9.8,0,17.5,3.2,23.2,9.6c5.6,6.4,9.5,15.3,11.6,26.5c2.1,11.3,3.2,23.8,3.2,37.6
		c0,14.2-0.7,28.7-2.1,43.4c-1.4,14.7-4,29.4-7.7,44.1c-3.3,12.4-7.3,24.6-11.9,36.5c-4.7,12-10.3,23.2-16.8,33.8
		c-4.1-1.8-8.8-5.7-14.1-11.7c-5.3-6-9.8-12.6-13.4-20c3.7-11.9,7.1-23.1,10.3-33.4c3.2-10.3,6-20.8,8.3-31.3
		c2.8-12.4,4.9-25.6,6.5-39.6c1.6-14,2.4-29.7,2.4-47.2c0-6-1.8-9-5.4-9c-3.2,0-6.7,1.3-10.6,3.8c-3.9,2.5-7.6,5.9-11.2,10
		c-3.6,4.1-7.2,8.6-10.6,13.4c-3.4,4.8-6,9.5-7.8,14.1c-2.3,5.5-4.5,10.9-6.8,16.2c-2.3,5.3-4.5,11.8-6.8,19.6
		c-1.8,5.5-3.7,11.9-5.5,19.3c-1.8,7.4-3.9,16-6.2,25.8c-2.3,9.9-4.9,21.5-7.9,34.8c-3,13.3-6.5,28.9-10.7,46.9
		c-4.6-0.5-9.9-2.4-15.8-5.9c-6-3.4-12.2-8.4-18.6-14.8c1.4-10.6,3.8-23.5,7.2-38.9c3.4-15.4,7.1-31.5,11-48.2
		c3.9-16.8,7.2-33.3,10-49.6c2.8-16.3,4.1-30.9,4.1-43.8c0-7.8-3.3-18.1-10-31c-6.7-12.9-18-24.1-34.1-33.8
		c28.9,2.8,48.3,10,58.2,21.7c9.9,11.7,14.8,27.2,14.8,46.5c7.7-15.6,16.2-27.1,25.6-34.5
		C2926.6,1353.2,2939.2,1349.5,2955.1,1349.5z"/>
	<path class="st5" d="M3343.7,1228.3c20.7,0,37.4,6.4,50.3,19.3c12.9,12.9,20,32.4,21.4,58.6c-7.4-6.4-16.2-11-26.5-13.8
		s-21.5-4.1-33.4-4.1c-20.2,0-38.7,2.9-55.5,8.6c-16.8,5.7-31.6,13.4-44.4,23.1c-16.5,12.4-29.3,27-38.2,43.8
		c-9,16.8-13.4,33.7-13.4,50.6c0,15.6,6.2,27.7,18.6,36.2c12.4,8.5,28.2,16,47.5,22.4c18.4,6.4,38.2,12.9,59.6,19.3
		c21.4,6.4,41.2,15.4,59.6,26.9c-0.9,5.1-4.8,11.5-11.7,19.3c-6.9,7.8-16.3,15.8-28.2,24.1c-12,8.3-26.3,16.3-43.1,24.1
		c-16.8,7.8-35.5,14.5-56.2,20c-13.8,3.7-28.2,6.5-43.4,8.6c-15.2,2.1-31.2,3.1-48.2,3.1c-14.7,0-26.5-5.9-35.5-17.6
		s-16.4-27.4-22.4-47.2c6.4,4.6,13.3,7.7,20.7,9.3c7.4,1.6,15.4,2.4,24.1,2.4c12.9,0,25.8-0.3,38.9-1c13.1-0.7,26.5-2.2,40.3-4.5
		c13.8-2.3,27.9-5.2,42.4-8.6c14.5-3.4,29-7.7,43.8-12.7c-12-0.9-24.6-3.6-37.9-7.9c-13.3-4.4-26-10.9-37.9-19.6
		c-13.8-10.1-25.4-23.5-34.8-40.3c-9.4-16.8-14.1-37.6-14.1-62.4c0-20.7,4.2-41.6,12.7-62.7c8.5-21.1,20.1-40.4,34.8-57.9
		c14.7-17.5,31.6-31.7,50.6-42.7C3303.2,1233.8,3323.1,1228.3,3343.7,1228.3z"/>
	<path class="st5" d="M3523.5,1346.8c7.8,0,17.1,2.5,27.9,7.6c10.8,5.1,24.9,14.9,42.4,29.6c-17.9,1.4-33,2.9-45.1,4.5
		c-12.2,1.6-22.9,3.1-32,4.5c-9.2,1.4-17.5,2.8-24.8,4.1c-7.4,1.4-15.2,2.5-23.4,3.4c-4.1,16.1-9.4,32.7-15.8,50
		c-6.4,17.2-9.6,36.2-9.6,56.8c0,3.7,0.2,7.4,0.7,11c0.5,3.7,1.6,7.1,3.4,10.3c3.2,5.5,7.3,8.3,12.4,8.3c3.7,0,7.6-1.9,11.7-5.9
		c4.1-3.9,8.3-8.8,12.4-14.8c6-9.2,11.1-19.4,15.5-30.7c4.4-11.3,6.5-21.2,6.5-30c0-6.4-0.6-12.5-1.7-18.3
		c-1.2-5.7-3.3-12.3-6.5-19.6c16.5,11,24.8,27.6,24.8,49.6c0,10.6-1.4,21.5-4.1,32.7c-2.8,11.3-6.7,22.2-11.7,32.7
		c-6.9,14.2-15.6,26.2-26.2,35.8c-10.6,9.6-21.8,14.5-33.8,14.5c-6.4,0-12.4-1.3-17.9-3.8c-5.5-2.5-10.1-6.8-13.8-12.7
		c-3.2-5-5.7-11-7.6-17.9c-1.8-6.9-2.8-15.2-2.8-24.8c0-23.4,2.3-46.3,6.9-68.6c4.6-22.3,10.3-41.4,17.2-57.5
		c-5.5-1.4-11.1-3.2-16.9-5.5c-5.7-2.3-11-5.7-15.8-10.3c-4.8-4.6-8.7-10.3-11.7-17.2c-3-6.9-4.5-15.4-4.5-25.5
		c8.3,2.8,18.9,5.3,32,7.6c13.1,2.3,24,3.4,32.7,3.4c11.9-25.7,22.8-50.2,32.7-73.4c9.9-23.2,17.8-48.1,23.8-74.8
		c7.3,14.2,11,28.2,11,42c0,18.8-2.9,37.4-8.6,55.8c-5.7,18.4-12.1,34.9-18.9,49.6c6,0,12.3-0.5,18.9-1.4
		C3509.9,1347.2,3516.6,1346.8,3523.5,1346.8z"/>
	<path class="st5" d="M3604.8,1346.1c2.3,2.3,4.5,5.9,6.5,10.7c2.1,4.8,3.1,10.9,3.1,18.3c0,3.7-0.5,7.1-1.4,10.3
		c-0.9,3.2-1.8,6.4-2.8,9.6c-3.2,8.7-6.4,17.8-9.6,27.2c-3.2,9.4-6.2,19.2-9,29.3c-3.7,12.9-6.8,25.6-9.3,38.2
		c-2.5,12.6-3.8,24.2-3.8,34.8c0,3.7,1.1,7.7,3.4,12.1c2.3,4.4,6.4,7.5,12.4,9.3c14.7-12.4,26.2-27.9,34.4-46.5
		c8.3-18.6,14.7-37.8,19.3-57.5c3.7-15.2,6.2-29.9,7.6-44.1c1.4-14.2,2.5-26.6,3.4-37.2c6.9-1.4,13.8-2.1,20.7-2.1
		c5,0,11,0.7,17.9,2.1c-2.3,12.9-4.8,26.6-7.6,41.3c-2.8,14.7-5.2,29.4-7.2,44.1c-2.1,14.7-3.8,28.9-5.2,42.7
		c-1.4,13.8-2.1,26.2-2.1,37.2c0,5.1,0.7,10.3,2.1,15.8c1.4,5.5,4.1,11,8.3,16.5c7.3,10.1,19.1,18.4,35.1,24.8
		c-13.8,10.1-27.6,15.2-41.3,15.2c-8.7,0-16.1-4.8-22-14.5c-3.7-5.5-6.5-12.6-8.6-21.4c-2.1-8.7-3.3-19.5-3.8-32.4
		c-7.8,12.4-14.4,22-19.6,28.9c-5.3,6.9-10,12.1-14.1,15.5c-4.1,3.4-8.2,5.5-12.1,6.2c-3.9,0.7-8.2,1-12.7,1c-8.7,0-16-1.8-21.7-5.5
		c-5.7-3.7-10.2-8.6-13.4-14.8c-3.2-6.2-5.5-13.4-6.9-21.7c-1.4-8.3-2.1-16.8-2.1-25.5c0-6.9,1.3-17.5,3.8-31.7
		c2.5-14.2,6.5-29.9,12.1-46.9c5-16.1,11.4-32,18.9-47.9C3585.2,1371.9,3594.3,1358,3604.8,1346.1z"/>
	<path class="st5" d="M3939.7,1156.6c-1.4,12-3.2,23-5.5,33.1c-2.3,10.1-4.7,19.9-7.2,29.3c-2.5,9.4-5.3,18.9-8.3,28.6
		c-3,9.6-6.1,19.8-9.3,30.3c-18.8,66.1-33.3,119.1-43.4,158.8c-10.1,39.7-15.2,69.9-15.2,90.6c0,6,0.9,10.8,2.8,14.5
		c1.8,3.7,4.6,5.5,8.3,5.5c6.9,0,12.7-1.8,17.6-5.5c4.8-3.7,9.1-7.6,12.7-11.7c-2.3,14.7-7,27.6-14.1,38.6
		c-7.1,11-15.1,16.5-23.8,16.5c-10.1,0-18-4.1-23.8-12.4c-5.7-8.3-8.6-22.7-8.6-43.4c0-2.8,0.1-6.2,0.3-10.3
		c0.2-4.1,0.8-8.3,1.7-12.4c-6,10.1-11.8,19.4-17.6,27.9c-5.7,8.5-11.6,16-17.6,22.4c-13.3,14.7-26,22.5-37.9,23.4
		c-16.1-3.2-27.6-9.4-34.5-18.6c-6.9-9.2-10.3-21.1-10.3-35.8c0-23.4,3.4-43.9,10.3-61.3c6.9-17.5,15.8-33.3,26.9-47.5
		c11-13.8,23.4-26.3,37.2-37.6c13.8-11.2,27.8-22.4,42-33.4c2.3,0,6.5,0.7,12.7,2.1c6.2,1.4,11.4,2.5,15.5,3.4
		c2.3-8.3,5.3-18.5,9-30.7c3.7-12.2,7.6-25.1,11.7-38.9c4.1-13.8,8.3-27.4,12.4-41c4.1-13.5,8-25.8,11.7-36.9
		c3.2-10.6,6.7-18.9,10.3-25.1c3.7-6.2,7.2-10.8,10.7-13.8c3.4-3,7.1-5,11-6.2C3931.5,1157.9,3935.6,1157.1,3939.7,1156.6z
		 M3744,1532.8c5,0,10.4-2.1,16.2-6.2c5.7-4.1,11.4-9.4,16.9-15.8c6.4-7.3,12.3-15,17.6-23.1c5.3-8,9.8-14.8,13.4-20.3
		c2.8-4.6,5.9-10.2,9.3-16.9c3.4-6.7,6.9-13.5,10.3-20.7c3.4-7.1,6.5-14.1,9.3-21c2.8-6.9,4.8-13.1,6.2-18.6
		c-11.5,0.9-23.2,6.4-35.1,16.5c-12,10.1-23.2,22-33.8,35.8c-11,14.7-20.2,30-27.6,45.8c-7.4,15.8-11,28.4-11,37.5
		C3735.7,1530.5,3738.5,1532.8,3744,1532.8z"/>
	<path class="st5" d="M3990,1481.8c1.8,4.6,3,7.9,3.4,10c0.5,2.1,0.7,4.3,0.7,6.5c0,15.6-5.1,32.2-15.2,49.6
		c-5.1,7.8-10.9,14.9-17.6,21.4c-6.7,6.4-14.6,11.2-23.8,14.5c-6.9,0-12.7-2-17.6-5.9c-4.8-3.9-9-9.2-12.4-15.8
		c-3.4-6.7-6-14.4-7.6-23.1c-1.6-8.7-2.4-17.7-2.4-26.9c0-14.7,1.7-29.2,5.2-43.4c3.4-14.2,7.9-28.2,13.4-42
		c6-13.8,12.7-27.3,20.3-40.7c7.6-13.3,15.3-26.2,23.1-38.6c4.1,0.9,8.7,3.1,13.8,6.5c5,3.4,10.6,9.1,16.5,16.9
		c-10.1,17.9-18.5,34.6-25.1,50c-6.7,15.4-11.8,29.5-15.5,42.4c-4.6,15.6-7.6,28.9-9,40c-1.4,11-2.1,19.8-2.1,26.2
		c0,5.5,1.4,8.3,4.1,8.3c4.6,0,9.2-1.6,13.8-4.8c4.6-3.2,9-7.3,13.1-12.4c4.6-5.5,8.6-11.7,12.1-18.6
		C3984.8,1494.9,3987.7,1488.3,3990,1481.8z M3984.5,1326.8c-6.4-2.3-10.9-7.7-13.4-16.2c-2.5-8.5-3.8-18.5-3.8-30
		c0-11.5,0.7-21,2.1-28.6s3.2-14.5,5.5-20.7c2.3-6.2,4.9-12.5,7.9-18.9c3-6.4,6.1-14.2,9.3-23.4c9.2,0,16.2,4.3,21,12.7
		c4.8,8.5,7.2,17.3,7.2,26.5c0,9.2-1.5,17.8-4.5,25.8c-3,8-6.4,16-10.3,23.8c-3.9,7.8-7.8,15.6-11.7,23.4
		C3989.9,1309.1,3986.8,1317.6,3984.5,1326.8z"/>
	<path class="st5" d="M4066.5,1582.4c-26.6,0-46.2-10.1-58.6-30.3c-8.7-13.8-13.1-30.5-13.1-50.3c0-14.2,3.4-30.7,10.3-49.3
		c6.9-18.6,16.1-36.2,27.6-52.7c10.6-15.2,22.2-28,34.8-38.6c12.6-10.6,25.6-15.8,38.9-15.8c11.9,0,22.8,2.2,32.7,6.5
		c9.9,4.4,18.7,10.5,26.5,18.3c8.7,9.2,15.5,19.8,20.3,31.7c4.8,12,7.2,25,7.2,39.3c0,16.5-3.1,32.5-9.3,47.9
		c-6.2,15.4-14.4,29.3-24.5,41.7c-12.9,15.6-27.6,28.1-44.1,37.6S4082.5,1582.4,4066.5,1582.4z M4052.7,1532.1
		c15.6,0,29.9-3.2,42.7-9.6c12.9-6.4,23.9-14.2,33.1-23.4c10.6-10.6,18.5-21.8,23.8-33.8c5.3-11.9,7.9-22.7,7.9-32.4
		c0-5.5-0.9-10.8-2.8-15.8c-1.8-5-4.8-9.4-9-13.1c-6.4-5.5-15.4-8.3-26.9-8.3c-9.2,0-18.4,2.9-27.6,8.6
		c-9.2,5.7-17.7,13.2-25.5,22.4c-6.4,6.9-12.4,14.5-17.9,22.7c-5.5,8.3-10.2,16.4-14.1,24.5c-3.9,8-7,15.5-9.3,22.4
		c-2.3,6.9-3.4,12.6-3.4,17.2c0,5.5,1.8,9.9,5.5,13.1C4033.8,1530.3,4041.7,1532.1,4052.7,1532.1z"/>
</g>
<g>
</g>
<g>
</g>
<g>
</g>
<g>
</g>
<g>
</g>
<g>
</g>
</svg>
